<svg width="594" height="422" viewBox="0 0 594 422" fill="none" xmlns="http://www.w3.org/2000/svg">
<g clip-path="url(#clip0_95_1910)">
<path d="M439.069 416.6H429.016L424.233 377.786L439.072 377.786L439.069 416.6Z" fill="#FFB8B8"/>
<path d="M421.835 413.725H441.224V425.944H409.627C409.627 424.339 409.943 422.75 410.556 421.268C411.17 419.785 412.069 418.438 413.203 417.304C414.336 416.169 415.682 415.269 417.163 414.655C418.644 414.041 420.232 413.725 421.835 413.725Z" fill="#2F2E41"/>
<path d="M512.018 405.202L502.873 409.382L482.41 376.066L495.906 369.896L512.018 405.202Z" fill="#FFB8B8"/>
<path d="M495.147 409.753L512.784 401.69L517.856 412.805L489.115 425.945C488.449 424.485 488.076 422.908 488.019 421.305C487.962 419.701 488.221 418.102 488.781 416.598C489.341 415.095 490.191 413.717 491.284 412.542C492.376 411.368 493.689 410.42 495.147 409.753Z" fill="#2F2E41"/>
<path d="M482.74 285.728C483.703 285.002 484.496 284.074 485.062 283.009C485.628 281.943 485.954 280.767 486.016 279.562C486.079 278.357 485.877 277.153 485.424 276.034C484.972 274.916 484.279 273.91 483.397 273.089L495.215 246.248L480.201 248.795L471.28 273.893C469.999 275.469 469.34 277.46 469.428 279.49C469.516 281.519 470.345 283.446 471.758 284.905C473.17 286.364 475.069 287.253 477.093 287.405C479.117 287.557 481.126 286.96 482.74 285.728Z" fill="#FFB8B8"/>
<path d="M438.429 406.366H428.825C427.893 406.363 426.997 406.008 426.315 405.373C425.633 404.738 425.215 403.869 425.144 402.94L414.986 262.944C414.947 262.407 415.026 261.869 415.216 261.366C415.407 260.863 415.705 260.408 416.09 260.032C416.474 259.657 416.936 259.37 417.443 259.191C417.95 259.013 418.49 258.948 419.025 259L479.491 264.904C480.392 264.993 481.228 265.409 481.842 266.073C482.456 266.738 482.805 267.605 482.823 268.511L483.987 330.265C483.993 330.6 484.058 330.931 484.178 331.244L506.964 390.386C507.14 390.843 507.223 391.33 507.209 391.819C507.195 392.309 507.084 392.791 506.883 393.237C506.681 393.683 506.393 394.085 506.034 394.418C505.676 394.752 505.255 395.011 504.796 395.18L495.064 398.769C494.218 399.081 493.288 399.072 492.449 398.745C491.609 398.418 490.918 397.795 490.506 396.993L462.516 342.517C462.363 342.22 462.252 341.905 462.184 341.579L457.403 318.519C457.264 317.85 456.892 317.253 456.353 316.834C455.814 316.415 455.144 316.202 454.463 316.233C453.781 316.264 453.133 316.537 452.634 317.003C452.135 317.469 451.819 318.097 451.741 318.776L442.095 403.092C441.993 403.993 441.562 404.825 440.886 405.429C440.21 406.032 439.335 406.366 438.429 406.366Z" fill="#2F2E41"/>
<path d="M443.212 153.481C454.335 153.481 463.353 144.455 463.353 133.321C463.353 122.187 454.335 113.161 443.212 113.161C432.088 113.161 423.07 122.187 423.07 133.321C423.07 144.455 432.088 153.481 443.212 153.481Z" fill="#FFB8B8"/>
<path d="M418.819 263.753C421.397 265.533 450.446 284.693 483.556 269.453C483.127 265.752 478.995 228.594 482.604 201.201C484.316 188.204 479.145 176.164 468.418 168.167C462.592 163.844 455.72 161.155 448.51 160.375C441.3 159.596 434.012 160.755 427.399 163.733H427.399C426.855 163.977 426.308 164.231 425.757 164.494L418.819 263.753Z" fill="#6C63FF"/>
<path d="M483.87 269.148C483.359 269.148 482.854 269.041 482.386 268.835C481.918 268.629 481.499 268.327 481.154 267.95L476.748 263.139C476.32 262.668 476.019 262.095 475.876 261.475C475.733 260.854 475.751 260.207 475.93 259.596L486.02 225.412L470.667 193.141C469.994 191.722 469.829 190.114 470.2 188.588C470.527 187.249 471.252 186.04 472.28 185.122C473.307 184.203 474.589 183.618 475.956 183.443C477.322 183.268 478.709 183.512 479.935 184.143C481.16 184.773 482.165 185.761 482.819 186.975L503.573 220.683C504.381 221.993 504.855 223.481 504.953 225.017C505.052 226.552 504.772 228.089 504.139 229.491L487.238 266.973C486.987 267.531 486.602 268.017 486.117 268.389C485.632 268.76 485.062 269.005 484.458 269.101C484.264 269.132 484.067 269.148 483.87 269.148Z" fill="#6C63FF"/>
<path opacity="0.2" d="M433.725 264.776H425.678L439.724 198.616L440.534 198.722L437.41 261.268C437.363 262.214 436.954 263.107 436.268 263.76C435.582 264.413 434.671 264.777 433.725 264.776Z" fill="black"/>
<path d="M426.279 281.225C427.071 280.315 427.654 279.242 427.987 278.082C428.319 276.923 428.394 275.704 428.205 274.512C428.017 273.32 427.569 272.185 426.894 271.185C426.22 270.185 425.334 269.345 424.3 268.724L430.293 240.013L416.135 245.624L412.614 272.029C411.688 273.837 411.457 275.922 411.964 277.889C412.471 279.856 413.682 281.569 415.366 282.702C417.05 283.836 419.092 284.311 421.103 284.039C423.114 283.767 424.956 282.765 426.279 281.225Z" fill="#FFB8B8"/>
<path d="M425.467 264.859C425.328 264.859 425.189 264.851 425.051 264.835L416.47 263.881C415.542 263.775 414.689 263.322 414.081 262.613C413.473 261.904 413.154 260.991 413.19 260.057L416.741 174.051C416.852 171.354 417.942 168.789 419.806 166.837C421.67 164.886 424.18 163.681 426.867 163.448C429.555 163.215 432.235 163.97 434.406 165.572C436.577 167.173 438.091 169.512 438.664 172.151L440.952 182.682L440.94 182.756L429.108 261.712C428.98 262.586 428.541 263.386 427.873 263.964C427.205 264.541 426.351 264.859 425.467 264.859Z" fill="#6C63FF"/>
<path d="M459.806 151.094C457.718 151.452 455.999 148.543 455.739 146.496C455.479 144.449 456.225 142.49 456.306 140.456C456.387 138.423 455.429 135.951 453.319 135.349C451.107 134.716 449.056 136.492 446.792 136.279C443.637 135.981 442.052 132.285 441.67 129.295C441.288 126.305 440.987 122.764 438.255 121.059C435.53 119.359 432.16 120.596 429.03 120.649C423.739 120.738 418.353 116.7 417.117 111.716C417.759 111.902 418.444 111.867 419.064 111.619C419.684 111.37 420.204 110.922 420.54 110.344C420.805 109.728 420.859 109.042 420.694 108.392C420.529 107.742 420.153 107.165 419.626 106.751L425.624 109.69C424.804 108.02 426.042 106.118 427.746 105.486C429.449 104.854 431.432 105.138 433.312 105.43C442.702 106.89 453.578 106.171 459.806 113.337C464.121 118.3 467.672 127.746 467.187 133.857C466.702 139.969 459.806 151.094 459.806 151.094Z" fill="#2F2E41"/>
<path d="M231.254 378.393H15.5807C14.0587 378.391 12.5997 377.785 11.5235 376.708C10.4474 375.631 9.84201 374.171 9.8403 372.647L1.11236e-05 5.76771C-0.00147429 5.01174 0.145821 4.2629 0.433485 3.56391C0.721149 2.86493 1.14355 2.22949 1.67656 1.69391C2.20958 1.15832 2.84278 0.733072 3.53999 0.44243C4.23721 0.151788 4.98478 0.00144836 5.74005 0H221.413C222.935 0.0017076 224.394 0.607602 225.47 1.68475C226.546 2.7619 227.152 4.22234 227.154 5.74566L228.936 72.2092L227.297 72.2533L225.514 5.76771C225.515 5.22724 225.41 4.69176 225.205 4.19186C225 3.69195 224.698 3.23741 224.318 2.85423C223.937 2.47105 223.484 2.16673 222.986 1.95867C222.488 1.7506 221.953 1.64287 221.413 1.64162H5.74005C4.65298 1.64288 3.61081 2.07568 2.84213 2.84507C2.07346 3.61445 1.64106 4.65759 1.6398 5.74566L11.4801 372.625C11.4785 373.166 11.5833 373.701 11.7886 374.201C11.9938 374.701 12.2955 375.156 12.6763 375.539C13.0571 375.922 13.5096 376.226 14.0079 376.434C14.5063 376.642 15.0407 376.75 15.5807 376.751H231.254C232.341 376.75 233.383 376.317 234.152 375.548C234.92 374.779 235.353 373.735 235.354 372.647L233.439 301.259L235.079 301.215L236.994 372.625C236.995 373.381 236.848 374.13 236.56 374.829C236.273 375.528 235.85 376.164 235.317 376.699C234.784 377.235 234.151 377.66 233.454 377.951C232.757 378.241 232.009 378.392 231.254 378.393Z" fill="#CCCCCC"/>
<path d="M231.578 170.706L229.939 170.75L230.784 202.258L232.423 202.214L231.578 170.706Z" fill="#CCCCCC"/>
<path d="M211.9 346.061H33.2449C31.9469 346.059 30.7024 345.543 29.7846 344.624C28.8668 343.705 28.3505 342.46 28.349 341.16L20.1978 37.2546C20.1962 36.6096 20.3215 35.9707 20.5667 35.3742C20.8119 34.7777 21.1721 34.2354 21.6267 33.7783C22.0813 33.3212 22.6214 32.9582 23.2162 32.71C23.811 32.4619 24.4488 32.3335 25.0932 32.3322H203.749C205.047 32.3337 206.291 32.8504 207.209 33.7691C208.127 34.6878 208.643 35.9334 208.645 37.2326L210.121 72.1967L208.482 72.2657L207.005 37.2671C207.008 36.8366 206.926 36.4098 206.764 36.0112C206.602 35.6125 206.363 35.2498 206.06 34.9439C205.757 34.6379 205.398 34.3947 205.001 34.2283C204.604 34.0618 204.179 33.9754 203.749 33.9738H25.0932C24.2301 33.9749 23.4026 34.3185 22.7922 34.9294C22.1819 35.5404 21.8386 36.3686 21.8376 37.2326L29.9888 341.138C29.9871 341.568 30.07 341.994 30.2327 342.391C30.3955 342.788 30.6349 343.15 30.9374 343.454C31.2398 343.759 31.5992 344.001 31.9952 344.167C32.3911 344.332 32.8158 344.418 33.2449 344.419H211.9C212.764 344.418 213.591 344.075 214.202 343.464C214.812 342.853 215.155 342.024 215.156 341.16L214.101 301.259L215.74 301.215L216.796 341.139C216.798 341.784 216.672 342.423 216.427 343.019C216.182 343.616 215.822 344.158 215.367 344.615C214.912 345.072 214.372 345.435 213.777 345.683C213.183 345.931 212.545 346.06 211.9 346.061Z" fill="#CCCCCC"/>
<path d="M212.31 171.527L210.67 171.571L211.495 202.762L213.135 202.718L212.31 171.527Z" fill="#CCCCCC"/>
<path d="M259.439 171.549H50.3262C48.8125 171.547 47.3605 170.948 46.2858 169.881C45.211 168.814 44.6002 167.366 44.5861 165.851L41.3057 77.1561C41.3074 75.6327 41.9127 74.1723 42.9889 73.0952C44.065 72.018 45.5241 71.4121 47.046 71.4104H256.159C257.672 71.412 259.124 72.0114 260.199 73.0784C261.274 74.1454 261.885 75.5937 261.899 77.1088L265.179 165.803C265.178 167.327 264.572 168.787 263.496 169.864C262.42 170.942 260.961 171.547 259.439 171.549ZM42.946 77.1128L46.226 165.803C46.2272 166.892 46.6596 167.935 47.4283 168.704C48.197 169.473 49.2391 169.906 50.3262 169.908H259.439C260.518 169.906 261.554 169.479 262.322 168.719C263.089 167.959 263.526 166.927 263.539 165.847L260.259 77.1561C260.258 76.068 259.825 75.0248 259.057 74.2555C258.288 73.4861 257.246 73.0533 256.159 73.052H47.046C45.9664 73.0533 44.9308 73.4802 44.1634 74.2402C43.396 75.0002 42.9586 76.0323 42.946 77.1128Z" fill="#3F3D56"/>
<path d="M298.801 302.058H89.6886C88.1749 302.056 86.7229 301.457 85.6482 300.39C84.5734 299.323 83.9626 297.874 83.9485 296.359L80.6681 207.665C80.6698 206.141 81.2751 204.681 82.3513 203.604C83.4274 202.527 84.8865 201.921 86.4084 201.919H295.521C297.035 201.921 298.487 202.52 299.562 203.587C300.636 204.654 301.247 206.102 301.261 207.617L304.542 296.312C304.54 297.835 303.935 299.296 302.858 300.373C301.782 301.45 300.323 302.056 298.801 302.058ZM82.3084 207.621L85.5884 296.312C85.5896 297.4 86.022 298.443 86.7907 299.213C87.5594 299.982 88.6016 300.415 89.6886 300.416H298.801C299.881 300.415 300.917 299.988 301.684 299.228C302.451 298.468 302.889 297.436 302.901 296.355L299.621 207.665C299.62 206.577 299.188 205.534 298.419 204.764C297.65 203.995 296.608 203.562 295.521 203.561H86.4084C85.3289 203.562 84.2932 203.989 83.5258 204.749C82.7584 205.509 82.321 206.541 82.3084 207.621Z" fill="#3F3D56"/>
<path d="M139.302 221.208C137.888 221.208 136.532 221.77 135.533 222.771C134.533 223.771 133.971 225.128 133.971 226.543C133.971 227.958 134.533 229.315 135.533 230.316C136.532 231.316 137.888 231.879 139.302 231.879H245.908C247.322 231.879 248.678 231.316 249.677 230.316C250.677 229.315 251.238 227.958 251.238 226.543C251.238 225.128 250.677 223.771 249.677 222.771C248.678 221.77 247.322 221.208 245.908 221.208H139.302Z" fill="#6C63FF"/>
<path d="M139.302 246.653C137.888 246.653 136.532 247.215 135.533 248.216C134.533 249.216 133.971 250.573 133.971 251.988C133.971 253.403 134.533 254.76 135.533 255.761C136.532 256.762 137.888 257.324 139.302 257.324H245.908C247.322 257.324 248.678 256.762 249.677 255.761C250.677 254.76 251.238 253.403 251.238 251.988C251.238 250.573 250.677 249.216 249.677 248.216C248.678 247.215 247.322 246.653 245.908 246.653H139.302Z" fill="#6C63FF"/>
<path d="M139.302 272.098C137.888 272.098 136.532 272.66 135.533 273.661C134.533 274.661 133.971 276.019 133.971 277.434C133.971 278.849 134.533 280.206 135.533 281.206C136.532 282.207 137.888 282.769 139.302 282.769H245.908C247.322 282.769 248.678 282.207 249.677 281.206C250.677 280.206 251.238 278.849 251.238 277.434C251.238 276.019 250.677 274.661 249.677 273.661C248.678 272.66 247.322 272.098 245.908 272.098H139.302Z" fill="#6C63FF"/>
<path d="M99.9393 90.6994C98.5256 90.6994 97.1699 91.2615 96.1702 92.2621C95.1706 93.2627 94.609 94.6197 94.609 96.0347C94.609 97.4497 95.1706 98.8067 96.1702 99.8073C97.1699 100.808 98.5256 101.37 99.9393 101.37H206.546C207.96 101.37 209.315 100.808 210.315 99.8073C211.315 98.8067 211.876 97.4497 211.876 96.0347C211.876 94.6197 211.315 93.2627 210.315 92.2621C209.315 91.2615 207.96 90.6994 206.546 90.6994H99.9393Z" fill="#6C63FF"/>
<path d="M99.9393 116.145C98.5256 116.145 97.1699 116.707 96.1702 117.707C95.1706 118.708 94.609 120.065 94.609 121.48C94.609 122.895 95.1706 124.252 96.1702 125.252C97.1699 126.253 98.5256 126.815 99.9393 126.815H206.546C207.96 126.815 209.315 126.253 210.315 125.252C211.315 124.252 211.876 122.895 211.876 121.48C211.876 120.065 211.315 118.708 210.315 117.707C209.315 116.707 207.96 116.145 206.546 116.145H99.9393Z" fill="#6C63FF"/>
<path d="M99.9393 141.59C98.5256 141.59 97.1699 142.152 96.1702 143.152C95.1706 144.153 94.609 145.51 94.609 146.925C94.609 148.34 95.1706 149.697 96.1702 150.697C97.1699 151.698 98.5256 152.26 99.9393 152.26H206.546C207.96 152.26 209.315 151.698 210.315 150.697C211.315 149.697 211.876 148.34 211.876 146.925C211.876 145.51 211.315 144.153 210.315 143.152C209.315 142.152 207.96 141.59 206.546 141.59H99.9393Z" fill="#6C63FF"/>
<path d="M115.11 24.6243C119.639 24.6243 123.311 20.9494 123.311 16.4162C123.311 11.883 119.639 8.2081 115.11 8.2081C110.581 8.2081 106.91 11.883 106.91 16.4162C106.91 20.9494 110.581 24.6243 115.11 24.6243Z" fill="#E6E6E6"/>
</g>
<defs>
<clipPath id="clip0_95_1910">
<rect width="594" height="426" fill="white"/>
</clipPath>
</defs>
</svg>
