<svg width="426" height="424" viewBox="0 0 426 424" fill="none" xmlns="http://www.w3.org/2000/svg">
<g clip-path="url(#clip0_95_1864)">
<path d="M40.9667 359.71L37.2148 344.923C30.5627 342.105 23.7568 339.665 16.8296 337.614L16.356 344.486L14.4355 336.915C5.84454 334.46 0 333.381 0 333.381C0 333.381 7.89261 363.381 24.4522 386.317L43.7457 389.704L28.7572 391.864C30.8402 394.369 33.0787 396.74 35.4596 398.964C59.5464 421.307 86.375 431.559 95.3823 421.86C104.39 412.162 92.1652 386.188 68.0784 363.847C60.6113 356.92 51.2311 351.362 41.8412 346.986L40.9667 359.71Z" fill="#F2F2F2"/>
<path d="M76.6471 343.648L81.0841 329.052C76.8472 323.203 72.2836 317.599 67.415 312.264L63.4549 317.903L65.7267 310.429C59.6408 303.893 55.1963 299.949 55.1963 299.949C55.1963 299.949 46.4372 329.709 48.7478 357.897L63.5121 370.762L49.5617 364.868C50.0498 368.089 50.7401 371.276 51.6286 374.41C60.6914 405.98 78.3554 428.614 91.082 424.965C103.809 421.316 106.779 392.766 97.7163 361.197C94.907 351.41 89.7517 341.806 83.9769 333.21L76.6471 343.648Z" fill="#F2F2F2"/>
<path d="M297.261 101.157H294.92V37.0846C294.92 32.2146 293.96 27.3922 292.096 22.8929C290.231 18.3936 287.497 14.3054 284.051 10.8618C280.606 7.4182 276.515 4.68657 272.013 2.82289C267.51 0.959218 262.685 0 257.812 0H121.975C112.133 0 102.694 3.90711 95.735 10.8618C88.7758 17.8165 84.8662 27.2491 84.8662 37.0846V388.595C84.8662 393.465 85.826 398.287 87.6909 402.786C89.5558 407.285 92.2892 411.374 95.735 414.817C99.1809 418.261 103.272 420.993 107.774 422.856C112.276 424.72 117.102 425.679 121.975 425.679H257.812C267.653 425.679 277.092 421.772 284.051 414.817C291.01 407.862 294.92 398.43 294.92 388.595V146.764H297.26L297.261 101.157Z" fill="#E6E6E6"/>
<path d="M259.309 9.64453H241.579C242.395 11.6425 242.706 13.8102 242.486 15.9567C242.265 18.1031 241.52 20.1625 240.316 21.9533C239.111 23.7441 237.484 25.2115 235.579 26.226C233.673 27.2405 231.547 27.7711 229.388 27.771H151.569C149.41 27.7709 147.284 27.2402 145.378 26.2256C143.473 25.211 141.846 23.7436 140.642 21.9528C139.438 20.1621 138.692 18.1028 138.472 15.9564C138.252 13.81 138.563 11.6424 139.378 9.64453H122.818C115.468 9.64453 108.419 12.5623 103.222 17.756C98.0252 22.9497 95.1055 29.9939 95.1055 37.3389V388.338C95.1055 395.683 98.0252 402.728 103.222 407.921C108.419 413.115 115.468 416.033 122.818 416.033H259.309C266.659 416.033 273.708 413.115 278.905 407.921C284.102 402.728 287.021 395.683 287.021 388.338V37.3384C287.021 29.9935 284.101 22.9494 278.904 17.7558C273.707 12.5622 266.659 9.64453 259.309 9.64453Z" fill="white"/>
<path d="M173.671 149.465C173.67 147.011 174.317 144.601 175.545 142.477C176.772 140.352 178.539 138.588 180.666 137.363C178.54 136.136 176.128 135.49 173.673 135.489C171.219 135.489 168.807 136.135 166.681 137.361C164.555 138.588 162.789 140.352 161.562 142.476C160.334 144.601 159.688 147.011 159.688 149.464C159.688 151.917 160.334 154.327 161.562 156.452C162.789 158.576 164.555 160.341 166.681 161.567C168.807 162.793 171.219 163.439 173.673 163.439C176.128 163.438 178.54 162.792 180.666 161.565C178.539 160.34 176.773 158.577 175.545 156.452C174.317 154.328 173.671 151.918 173.671 149.465Z" fill="#CCCCCC"/>
<path d="M191.25 149.465C191.25 147.011 191.896 144.601 193.124 142.477C194.352 140.352 196.118 138.588 198.245 137.363C196.119 136.136 193.708 135.49 191.253 135.489C188.798 135.489 186.386 136.135 184.26 137.361C182.134 138.588 180.369 140.352 179.141 142.476C177.914 144.601 177.268 147.011 177.268 149.464C177.268 151.917 177.914 154.327 179.141 156.452C180.369 158.576 182.134 160.341 184.26 161.567C186.386 162.793 188.798 163.439 191.253 163.439C193.708 163.438 196.119 162.792 198.245 161.565C196.118 160.34 194.352 158.577 193.124 156.452C191.896 154.328 191.25 151.918 191.25 149.465Z" fill="#CCCCCC"/>
<path d="M208.43 163.439C216.153 163.439 222.414 157.182 222.414 149.464C222.414 141.746 216.153 135.49 208.43 135.49C200.707 135.49 194.447 141.746 194.447 149.464C194.447 157.182 200.707 163.439 208.43 163.439Z" fill="#6C63FF"/>
<path d="M231.8 193.113H150.301C149.525 193.112 148.781 192.803 148.232 192.255C147.684 191.707 147.375 190.963 147.374 190.188V108.741C147.375 107.965 147.684 107.222 148.232 106.674C148.781 106.125 149.525 105.817 150.301 105.816H231.8C232.576 105.817 233.32 106.125 233.869 106.674C234.417 107.222 234.726 107.965 234.727 108.741V190.188C234.726 190.963 234.417 191.707 233.869 192.255C233.32 192.803 232.576 193.112 231.8 193.113ZM150.301 106.986C149.835 106.987 149.389 107.172 149.06 107.501C148.73 107.83 148.545 108.276 148.545 108.741V190.189C148.545 190.654 148.73 191.1 149.06 191.429C149.389 191.758 149.835 191.943 150.301 191.943H231.8C232.266 191.943 232.712 191.758 233.041 191.429C233.371 191.1 233.556 190.654 233.556 190.189V108.741C233.556 108.276 233.371 107.83 233.041 107.501C232.712 107.172 232.266 106.987 231.8 106.986H150.301Z" fill="#CCCCCC"/>
<path d="M249.998 255.546H125.002V256.716H249.998V255.546Z" fill="#CCCCCC"/>
<path d="M128.949 248.241C131.13 248.241 132.897 246.475 132.897 244.297C132.897 242.118 131.13 240.352 128.949 240.352C126.769 240.352 125.002 242.118 125.002 244.297C125.002 246.475 126.769 248.241 128.949 248.241Z" fill="#6C63FF"/>
<path d="M249.998 294.993H125.002V296.163H249.998V294.993Z" fill="#CCCCCC"/>
<path d="M128.949 287.689C131.13 287.689 132.897 285.923 132.897 283.744C132.897 281.565 131.13 279.799 128.949 279.799C126.769 279.799 125.002 281.565 125.002 283.744C125.002 285.923 126.769 287.689 128.949 287.689Z" fill="#6C63FF"/>
<path d="M247.711 339.913H208.208C207.526 339.912 206.872 339.641 206.389 339.159C205.907 338.677 205.636 338.023 205.635 337.341V323.505C205.636 322.823 205.907 322.169 206.389 321.687C206.872 321.205 207.526 320.934 208.208 320.933H247.711C248.393 320.934 249.047 321.205 249.53 321.687C250.012 322.169 250.284 322.823 250.284 323.505V337.341C250.284 338.023 250.012 338.677 249.53 339.159C249.047 339.641 248.393 339.912 247.711 339.913Z" fill="#6C63FF"/>
<path d="M141.826 248.241C144.006 248.241 145.773 246.475 145.773 244.297C145.773 242.118 144.006 240.352 141.826 240.352C139.646 240.352 137.878 242.118 137.878 244.297C137.878 246.475 139.646 248.241 141.826 248.241Z" fill="#6C63FF"/>
<path d="M154.702 248.241C156.882 248.241 158.65 246.475 158.65 244.297C158.65 242.118 156.882 240.352 154.702 240.352C152.522 240.352 150.755 242.118 150.755 244.297C150.755 246.475 152.522 248.241 154.702 248.241Z" fill="#6C63FF"/>
<path d="M141.826 287.689C144.006 287.689 145.773 285.923 145.773 283.744C145.773 281.565 144.006 279.799 141.826 279.799C139.646 279.799 137.878 281.565 137.878 283.744C137.878 285.923 139.646 287.689 141.826 287.689Z" fill="#6C63FF"/>
<path d="M154.702 287.689C156.882 287.689 158.65 285.923 158.65 283.744C158.65 281.565 156.882 279.799 154.702 279.799C152.522 279.799 150.755 281.565 150.755 283.744C150.755 285.923 152.522 287.689 154.702 287.689Z" fill="#6C63FF"/>
<path d="M322.955 279.757C323.235 279.885 323.505 280.036 323.762 280.207L349.414 269.266L350.33 262.512L360.579 262.45L359.974 277.938L326.116 286.886C326.045 287.121 325.959 287.352 325.86 287.577C325.37 288.621 324.583 289.497 323.597 290.095C322.611 290.693 321.47 290.987 320.317 290.939C319.165 290.892 318.052 290.505 317.119 289.827C316.186 289.149 315.474 288.211 315.072 287.131C314.671 286.05 314.598 284.875 314.862 283.753C315.127 282.63 315.717 281.612 316.56 280.824C317.402 280.036 318.458 279.514 319.596 279.325C320.734 279.135 321.902 279.285 322.955 279.757Z" fill="#FFB8B8"/>
<path d="M364.307 420.109H357.295L353.96 393.081L364.308 393.082L364.307 420.109Z" fill="#FFB8B8"/>
<path d="M352.287 418.107H365.81V426.616H343.773C343.773 424.359 344.67 422.195 346.266 420.599C347.863 419.003 350.029 418.107 352.287 418.107Z" fill="#2F2E41"/>
<path d="M391.577 418.129L384.599 418.816L378.627 392.246L388.926 391.232L391.577 418.129Z" fill="#FFB8B8"/>
<path d="M379.418 417.314L392.876 415.99L393.71 424.458L371.78 426.616C371.67 425.504 371.781 424.382 372.105 423.312C372.43 422.243 372.962 421.248 373.671 420.384C374.381 419.521 375.253 418.805 376.239 418.278C377.225 417.751 378.306 417.424 379.418 417.314Z" fill="#2F2E41"/>
<path d="M366.259 233.845C374.017 233.845 380.306 227.56 380.306 219.807C380.306 212.054 374.017 205.769 366.259 205.769C358.501 205.769 352.212 212.054 352.212 219.807C352.212 227.56 358.501 233.845 366.259 233.845Z" fill="#FFB8B8"/>
<path d="M355.729 414.643C355.126 414.645 354.542 414.434 354.08 414.047C353.618 413.661 353.308 413.123 353.203 412.53C349.574 392.397 337.711 326.564 337.427 324.741C337.421 324.699 337.418 324.657 337.418 324.614V319.706C337.418 319.527 337.474 319.353 337.578 319.207L339.145 317.014C339.22 316.908 339.318 316.821 339.431 316.759C339.544 316.697 339.67 316.662 339.799 316.656C348.734 316.238 377.995 315.011 379.409 316.776C380.829 318.55 380.327 323.924 380.212 324.984L380.218 325.094L393.364 409.111C393.467 409.781 393.301 410.465 392.904 411.014C392.506 411.563 391.908 411.934 391.239 412.046L383.028 413.398C382.417 413.496 381.79 413.371 381.263 413.047C380.735 412.722 380.342 412.22 380.154 411.63C377.614 403.52 369.099 376.24 366.148 365.684C366.129 365.617 366.087 365.559 366.029 365.521C365.971 365.483 365.901 365.468 365.833 365.477C365.764 365.487 365.701 365.521 365.656 365.574C365.611 365.627 365.586 365.694 365.587 365.763C365.735 375.826 366.091 401.499 366.214 410.366L366.227 411.321C366.233 411.968 365.995 412.593 365.562 413.073C365.128 413.553 364.531 413.853 363.886 413.914L355.969 414.633C355.888 414.64 355.808 414.643 355.729 414.643Z" fill="#2F2E41"/>
<path d="M357.344 239.365C354.892 240.822 353.426 243.498 352.584 246.221C351.025 251.263 350.087 256.476 349.79 261.745L348.901 277.52L337.888 319.341C347.433 327.412 352.939 325.577 365.787 318.976C378.636 312.374 380.104 321.177 380.104 321.177L382.673 285.592L386.344 246.708C385.52 245.716 384.587 244.82 383.564 244.036C380.171 241.4 376.223 239.567 372.018 238.676C367.813 237.786 363.461 237.86 359.29 238.895L357.344 239.365Z" fill="#6C63FF"/>
<path d="M353.767 288.203C354.063 288.315 354.35 288.449 354.625 288.606L379.989 275.919L380.41 269.045L390.873 268.324L391.434 283.992L357.538 295.195C357.261 296.381 356.63 297.455 355.727 298.274C354.825 299.093 353.694 299.618 352.486 299.779C351.278 299.94 350.049 299.73 348.963 299.176C347.877 298.622 346.986 297.751 346.408 296.679C345.829 295.607 345.591 294.384 345.725 293.173C345.859 291.962 346.359 290.821 347.158 289.901C347.957 288.981 349.017 288.325 350.198 288.022C351.378 287.719 352.623 287.782 353.767 288.203Z" fill="#FFB8B8"/>
<path d="M386.16 246.886C392.401 249.087 393.5 272.934 393.5 272.934C386.158 268.899 377.348 275.502 377.348 275.502C377.348 275.502 375.513 269.265 373.31 261.195C372.645 258.924 372.565 256.523 373.079 254.214C373.592 251.905 374.682 249.763 376.247 247.988C376.247 247.988 379.92 244.683 386.16 246.886Z" fill="#6C63FF"/>
<path d="M378.854 223.52C377.104 222.12 374.716 224.664 374.716 224.664L373.316 212.07C373.316 212.07 364.565 213.118 358.964 211.721C353.364 210.324 352.489 216.793 352.489 216.793C352.2 214.18 352.141 211.546 352.314 208.923C352.663 205.774 357.214 202.626 365.265 200.527C373.316 198.428 377.516 207.523 377.516 207.523C383.118 210.321 380.604 224.919 378.854 223.52Z" fill="#2F2E41"/>
</g>
<defs>
<clipPath id="clip0_95_1864">
<rect width="426" height="427" fill="white"/>
</clipPath>
</defs>
</svg>
